<svg xmlns="http://www.w3.org/2000/svg" xmlns:xlink="http://www.w3.org/1999/xlink" version="1.1" width="7.500in" height="4.500in" viewBox="0 0 5400 3240">
	<desc>Stata Graph - Graph</desc>
	<rect x="0" y="0" width="5400" height="3240" style="fill:#FFFFFF;stroke:none"/>
	<rect x="0.00" y="0.00" width="5400.00" height="3240.00" style="fill:#FFFFFF"/>
	<rect x="3.24" y="3.24" width="5393.52" height="3233.52" style="fill:none;stroke:#FFFFFF;stroke-opacity:0.00;stroke-width:6.48"/>
	<rect x="180.90" y="309.82" width="5105.70" height="2620.35" style="fill:#FFFFFF"/>
	<rect x="184.14" y="313.06" width="5099.22" height="2613.87" style="fill:none;stroke:#FFFFFF;stroke-width:6.48"/>
	<circle cx="1284.19" cy="690.86" r="53.46" style="fill:#1A85FF"/>
	<circle cx="1284.19" cy="690.86" r="48.60" style="fill:none;stroke:#1A85FF;stroke-width:9.72"/>
	<text x="1429.99" y="736.26" style="font-family:'Helvetica';font-size:129.60px;fill:#1A85ff">O</text>
	<circle cx="2266.99" cy="690.86" r="48.60" style="fill:none;stroke:#1A85FF;stroke-width:9.72"/>
	<text x="2412.79" y="736.26" style="font-family:'Helvetica';font-size:129.60px;fill:#1A85ff">Oh</text>
	<circle cx="3249.79" cy="690.86" r="39.28" style="fill:#1A85FF"/>
	<circle cx="3249.79" cy="690.86" r="34.42" style="fill:none;stroke:#1A85FF;stroke-width:9.72"/>
	<text x="3395.59" y="736.26" style="font-family:'Helvetica';font-size:129.60px;fill:#1A85ff">o</text>
	<circle cx="4232.59" cy="690.86" r="34.42" style="fill:none;stroke:#1A85FF;stroke-width:9.72"/>
	<text x="4378.39" y="736.26" style="font-family:'Helvetica';font-size:129.60px;fill:#1A85ff">oh</text>
	<polygon points="1208.63,1000.52 1284.19,924.96 1359.74,1000.52 1284.19,1076.07" style="fill:#1A85FF"/>
	<polygon points="1215.51,1000.52 1284.19,931.84 1352.87,1000.52 1284.19,1069.20" style="fill:none;stroke:#1A85FF;stroke-width:9.72"/>
	<text x="1429.99" y="1045.92" style="font-family:'Helvetica';font-size:129.60px;fill:#1A85ff">D</text>
	<polygon points="2198.31,1000.52 2266.99,931.84 2335.67,1000.52 2266.99,1069.20" style="fill:none;stroke:#1A85FF;stroke-width:9.72"/>
	<text x="2412.79" y="1045.92" style="font-family:'Helvetica';font-size:129.60px;fill:#1A85ff">Dh</text>
	<polygon points="3194.31,1000.52 3249.79,945.05 3305.26,1000.52 3249.79,1055.99" style="fill:#1A85FF"/>
	<polygon points="3201.19,1000.52 3249.79,951.92 3298.39,1000.52 3249.79,1049.12" style="fill:none;stroke:#1A85FF;stroke-width:9.72"/>
	<text x="3395.59" y="1045.92" style="font-family:'Helvetica';font-size:129.60px;fill:#1A85ff">d</text>
	<polygon points="4183.99,1000.52 4232.59,951.92 4281.19,1000.52 4232.59,1049.12" style="fill:none;stroke:#1A85FF;stroke-width:9.72"/>
	<text x="4378.39" y="1045.92" style="font-family:'Helvetica';font-size:129.60px;fill:#1A85ff">dh</text>
	<polygon points="1284.19,1235.82 1219.65,1347.60 1348.72,1347.60" style="fill:#1A85FF"/>
	<polygon points="1284.19,1245.54 1228.07,1342.74 1340.31,1342.74" style="fill:none;stroke:#1A85FF;stroke-width:9.72"/>
	<text x="1429.99" y="1355.75" style="font-family:'Helvetica';font-size:129.60px;fill:#1A85ff">T</text>
	<polygon points="2266.99,1245.54 2210.87,1342.74 2323.11,1342.74" style="fill:none;stroke:#1A85FF;stroke-width:9.72"/>
	<text x="2412.79" y="1355.75" style="font-family:'Helvetica';font-size:129.60px;fill:#1A85ff">Th</text>
	<polygon points="3249.79,1252.02 3199.28,1339.50 3300.29,1339.50" style="fill:#1A85FF"/>
	<polygon points="3249.79,1261.74 3207.70,1334.64 3291.88,1334.64" style="fill:none;stroke:#1A85FF;stroke-width:9.72"/>
	<text x="3395.59" y="1355.75" style="font-family:'Helvetica';font-size:129.60px;fill:#1A85ff">t</text>
	<polygon points="4232.59,1261.74 4190.50,1334.64 4274.68,1334.64" style="fill:none;stroke:#1A85FF;stroke-width:9.72"/>
	<text x="4378.39" y="1355.75" style="font-family:'Helvetica';font-size:129.60px;fill:#1A85ff">th</text>
	<rect x="1230.73" y="1566.54" width="106.92" height="106.92" style="fill:#1A85FF"/>
	<rect x="1235.59" y="1571.40" width="97.20" height="97.20" style="fill:none;stroke:#1A85FF;stroke-width:9.72"/>
	<text x="1429.99" y="1665.40" style="font-family:'Helvetica';font-size:129.60px;fill:#1A85ff">S</text>
	<rect x="2218.39" y="1571.40" width="97.20" height="97.20" style="fill:none;stroke:#1A85FF;stroke-width:9.72"/>
	<text x="2412.79" y="1665.40" style="font-family:'Helvetica';font-size:129.60px;fill:#1A85ff">Sh</text>
	<rect x="3210.50" y="1580.72" width="78.57" height="78.57" style="fill:#1A85FF"/>
	<rect x="3215.36" y="1585.58" width="68.85" height="68.85" style="fill:none;stroke:#1A85FF;stroke-width:9.72"/>
	<text x="3395.59" y="1665.40" style="font-family:'Helvetica';font-size:129.60px;fill:#1A85ff">s</text>
	<rect x="4198.16" y="1585.58" width="68.85" height="68.85" style="fill:none;stroke:#1A85FF;stroke-width:9.72"/>
	<text x="4378.39" y="1665.40" style="font-family:'Helvetica';font-size:129.60px;fill:#1A85ff">sh</text>
	<line x1="1235.59" y1="1929.83" x2="1332.79" y2="1929.83" stroke-linecap="round" style="fill:none;stroke:#1A85FF;stroke-width:9.72"/>
	<line x1="1284.19" y1="1978.43" x2="1284.19" y2="1881.23" stroke-linecap="round" style="fill:none;stroke:#1A85FF;stroke-width:9.72"/>
	<text x="1429.99" y="1975.23" style="font-family:'Helvetica';font-size:129.60px;fill:#1A85ff">+</text>
	<line x1="2232.56" y1="1929.83" x2="2301.41" y2="1929.83" stroke-linecap="round" style="fill:none;stroke:#1A85FF;stroke-width:9.72"/>
	<line x1="2266.99" y1="1964.25" x2="2266.99" y2="1895.40" stroke-linecap="round" style="fill:none;stroke:#1A85FF;stroke-width:9.72"/>
	<text x="2412.79" y="1975.23" style="font-family:'Helvetica';font-size:129.60px;fill:#1A85ff">smplus</text>
	<line x1="3215.42" y1="1964.19" x2="3284.15" y2="1895.46" stroke-linecap="round" style="fill:none;stroke:#1A85FF;stroke-width:9.72"/>
	<line x1="3284.15" y1="1964.19" x2="3215.42" y2="1895.46" stroke-linecap="round" style="fill:none;stroke:#1A85FF;stroke-width:9.72"/>
	<text x="3395.59" y="1975.23" style="font-family:'Helvetica';font-size:129.60px;fill:#1A85ff">X</text>
	<line x1="4208.25" y1="1954.17" x2="4256.93" y2="1905.48" stroke-linecap="round" style="fill:none;stroke:#1A85FF;stroke-width:9.72"/>
	<line x1="4256.93" y1="1954.17" x2="4208.25" y2="1905.48" stroke-linecap="round" style="fill:none;stroke:#1A85FF;stroke-width:9.72"/>
	<text x="4378.39" y="1975.23" style="font-family:'Helvetica';font-size:129.60px;fill:#1A85ff">x</text>
	<path d="M1259.89 2239.48 L1284.19 2190.88 L1308.49 2239.48 Z M1284.19 2239.48 L1284.19 2288.08" style="fill:#1A85FF;stroke:#1A85FF;stroke-width:9.72"/>
	<text x="1429.99" y="2284.88" style="font-family:'Helvetica';font-size:129.60px;fill:#1A85ff">A</text>
	<path d="M2234.59 2239.48 L2266.99 2190.88 L2299.39 2239.48 M2266.99 2190.88 L2266.99 2288.08" stroke-linecap="round" stroke-linejoin="round" style="fill:none;stroke:#1A85FF;stroke-width:9.72"/>
	<text x="2412.79" y="2284.88" style="font-family:'Helvetica';font-size:129.60px;fill:#1A85ff">a</text>
	<path d="M3193.67 2174.68 L3249.79 2271.88 L3305.91 2174.68" style="fill:none;stroke:#1A85FF;stroke-width:9.72"/>
	<text x="3395.59" y="2284.88" style="font-family:'Helvetica';font-size:129.60px;fill:#1A85ff">V</text>
	<path d="M4190.50 2190.88 L4232.59 2263.78 L4274.68 2190.88" style="fill:none;stroke:#1A85FF;stroke-width:9.72"/>
	<text x="4378.39" y="2284.88" style="font-family:'Helvetica';font-size:129.60px;fill:#1A85ff">v</text>
	<line x1="1284.19" y1="2597.91" x2="1284.19" y2="2500.71" stroke-linecap="round" style="fill:none;stroke:#1A85FF;stroke-width:9.72"/>
	<text x="1429.99" y="2594.71" style="font-family:'Helvetica';font-size:129.60px;fill:#1A85ff">|</text>
	<circle cx="2266.99" cy="2549.31" r="1.00" style="fill:#1A85FF;stroke:none"/>
	<text x="2412.79" y="2594.71" style="font-family:'Helvetica';font-size:129.60px;fill:#1A85ff">p</text>
	<line x1="180.90" y1="2930.18" x2="180.90" y2="309.82" style="stroke:#000000;stroke-width:6.48"/>
	<line x1="180.90" y1="2930.18" x2="5286.60" y2="2930.18" style="stroke:#000000;stroke-width:6.48"/>
	<text x="200.31" y="3080.13" style="font-family:'Helvetica';font-size:89.94px;fill:#000000">(symbols shown at larger than default size)</text>
	<text x="2733.75" y="243.10" style="font-family:'Helvetica';font-size:157.44px;fill:#000000" text-anchor="middle">Symbol palette</text>
</svg>