<svg xmlns="http://www.w3.org/2000/svg" xmlns:xlink="http://www.w3.org/1999/xlink" version="1.1" width="5.500in" height="4.000in" viewBox="0 0 3960 2880">
	<desc>Stata Graph - Graph</desc>
	<rect x="0" y="0" width="3960" height="2880" style="fill:#EAF2F3;stroke:none"/>
	<rect x="0.00" y="0.00" width="3959.88" height="2880.00" style="fill:#EAF2F3"/>
	<rect x="2.88" y="2.88" width="3954.12" height="2874.24" style="fill:none;stroke:#EAF2F3;stroke-width:5.76"/>
	<rect x="390.80" y="100.86" width="3468.22" height="2388.33" style="fill:#FFFFFF"/>
	<rect x="393.68" y="103.74" width="3462.46" height="2382.57" style="fill:none;stroke:#FFFFFF;stroke-width:5.76"/>
	<line x1="390.80" y1="2425.82" x2="3859.02" y2="2425.82" style="stroke:#EAF2F3;stroke-width:8.64"/>
	<line x1="390.80" y1="1860.39" x2="3859.02" y2="1860.39" style="stroke:#EAF2F3;stroke-width:8.64"/>
	<line x1="390.80" y1="1294.96" x2="3859.02" y2="1294.96" style="stroke:#EAF2F3;stroke-width:8.64"/>
	<line x1="390.80" y1="729.53" x2="3859.02" y2="729.53" style="stroke:#EAF2F3;stroke-width:8.64"/>
	<line x1="390.80" y1="164.22" x2="3859.02" y2="164.22" style="stroke:#EAF2F3;stroke-width:8.64"/>
	<circle cx="2767.42" cy="2380.16" r="26.35" style="fill:#1A476F"/>
	<circle cx="2767.42" cy="2380.16" r="22.03" style="fill:none;stroke:#1A476F;stroke-width:8.64"/>
	<circle cx="3024.57" cy="2399.96" r="26.35" style="fill:#1A476F"/>
	<circle cx="3024.57" cy="2399.96" r="22.03" style="fill:none;stroke:#1A476F;stroke-width:8.64"/>
	<circle cx="3667.08" cy="908.85" r="26.35" style="fill:#1A476F"/>
	<circle cx="3667.08" cy="908.85" r="22.03" style="fill:none;stroke:#1A476F;stroke-width:8.64"/>
	<circle cx="2638.97" cy="2398.72" r="26.35" style="fill:#1A476F"/>
	<circle cx="2638.97" cy="2398.72" r="22.03" style="fill:none;stroke:#1A476F;stroke-width:8.64"/>
	<circle cx="2253.36" cy="2302.69" r="26.35" style="fill:#1A476F"/>
	<circle cx="2253.36" cy="2302.69" r="22.03" style="fill:none;stroke:#1A476F;stroke-width:8.64"/>
	<circle cx="3538.63" cy="990.90" r="26.35" style="fill:#1A476F"/>
	<circle cx="3538.63" cy="990.90" r="22.03" style="fill:none;stroke:#1A476F;stroke-width:8.64"/>
	<circle cx="2638.97" cy="2356.89" r="26.35" style="fill:#1A476F"/>
	<circle cx="2638.97" cy="2356.89" r="22.03" style="fill:none;stroke:#1A476F;stroke-width:8.64"/>
	<circle cx="2896.00" cy="2164.70" r="26.35" style="fill:#1A476F"/>
	<circle cx="2896.00" cy="2164.70" r="22.03" style="fill:none;stroke:#1A476F;stroke-width:8.64"/>
	<circle cx="3153.03" cy="2134.75" r="26.35" style="fill:#1A476F"/>
	<circle cx="3153.03" cy="2134.75" r="22.03" style="fill:none;stroke:#1A476F;stroke-width:8.64"/>
	<circle cx="3281.60" cy="557.76" r="26.35" style="fill:#1A476F"/>
	<circle cx="3281.60" cy="557.76" r="22.03" style="fill:none;stroke:#1A476F;stroke-width:8.64"/>
	<circle cx="2510.39" cy="2235.98" r="26.35" style="fill:#1A476F"/>
	<circle cx="2510.39" cy="2235.98" r="22.03" style="fill:none;stroke:#1A476F;stroke-width:8.64"/>
	<circle cx="3410.06" cy="1053.02" r="26.35" style="fill:#1A476F"/>
	<circle cx="3410.06" cy="1053.02" r="22.03" style="fill:none;stroke:#1A476F;stroke-width:8.64"/>
	<circle cx="3538.63" cy="1056.98" r="26.35" style="fill:#1A476F"/>
	<circle cx="3538.63" cy="1056.98" r="22.03" style="fill:none;stroke:#1A476F;stroke-width:8.64"/>
	<circle cx="2896.00" cy="2371.12" r="26.35" style="fill:#1A476F"/>
	<circle cx="2896.00" cy="2371.12" r="22.03" style="fill:none;stroke:#1A476F;stroke-width:8.64"/>
	<circle cx="3410.06" cy="923.58" r="26.35" style="fill:#1A476F"/>
	<circle cx="3410.06" cy="923.58" r="22.03" style="fill:none;stroke:#1A476F;stroke-width:8.64"/>
	<circle cx="3538.63" cy="1762.13" r="26.35" style="fill:#1A476F"/>
	<circle cx="3538.63" cy="1762.13" r="22.03" style="fill:none;stroke:#1A476F;stroke-width:8.64"/>
	<circle cx="2638.97" cy="2170.89" r="26.35" style="fill:#1A476F"/>
	<circle cx="2638.97" cy="2170.89" r="22.03" style="fill:none;stroke:#1A476F;stroke-width:8.64"/>
	<circle cx="3281.60" cy="1367.98" r="26.35" style="fill:#1A476F"/>
	<circle cx="3281.60" cy="1367.98" r="22.03" style="fill:none;stroke:#1A476F;stroke-width:8.64"/>
	<circle cx="3538.63" cy="1290.01" r="26.35" style="fill:#1A476F"/>
	<circle cx="3538.63" cy="1290.01" r="22.03" style="fill:none;stroke:#1A476F;stroke-width:8.64"/>
	<circle cx="1867.88" cy="2350.09" r="26.35" style="fill:#1A476F"/>
	<circle cx="1867.88" cy="2350.09" r="22.03" style="fill:none;stroke:#1A476F;stroke-width:8.64"/>
	<circle cx="2124.91" cy="2404.41" r="26.35" style="fill:#1A476F"/>
	<circle cx="2124.91" cy="2404.41" r="22.03" style="fill:none;stroke:#1A476F;stroke-width:8.64"/>
	<circle cx="2510.39" cy="2289.08" r="26.35" style="fill:#1A476F"/>
	<circle cx="2510.39" cy="2289.08" r="22.03" style="fill:none;stroke:#1A476F;stroke-width:8.64"/>
	<circle cx="2767.42" cy="2282.27" r="26.35" style="fill:#1A476F"/>
	<circle cx="2767.42" cy="2282.27" r="22.03" style="fill:none;stroke:#1A476F;stroke-width:8.64"/>
	<circle cx="2896.00" cy="2352.93" r="26.35" style="fill:#1A476F"/>
	<circle cx="2896.00" cy="2352.93" r="22.03" style="fill:none;stroke:#1A476F;stroke-width:8.64"/>
	<circle cx="2124.91" cy="2404.41" r="26.35" style="fill:#1A476F"/>
	<circle cx="2124.91" cy="2404.41" r="22.03" style="fill:none;stroke:#1A476F;stroke-width:8.64"/>
	<circle cx="3538.63" cy="1024.81" r="26.35" style="fill:#1A476F"/>
	<circle cx="3538.63" cy="1024.81" r="22.03" style="fill:none;stroke:#1A476F;stroke-width:8.64"/>
	<circle cx="3538.63" cy="485.98" r="26.35" style="fill:#1A476F"/>
	<circle cx="3538.63" cy="485.98" r="22.03" style="fill:none;stroke:#1A476F;stroke-width:8.64"/>
	<circle cx="2896.00" cy="2204.80" r="26.35" style="fill:#1A476F"/>
	<circle cx="2896.00" cy="2204.80" r="22.03" style="fill:none;stroke:#1A476F;stroke-width:8.64"/>
	<circle cx="3153.03" cy="1822.65" r="26.35" style="fill:#1A476F"/>
	<circle cx="3153.03" cy="1822.65" r="22.03" style="fill:none;stroke:#1A476F;stroke-width:8.64"/>
	<circle cx="2381.94" cy="2348.97" r="26.35" style="fill:#1A476F"/>
	<circle cx="2381.94" cy="2348.97" r="22.03" style="fill:none;stroke:#1A476F;stroke-width:8.64"/>
	<circle cx="2124.91" cy="2298.11" r="26.35" style="fill:#1A476F"/>
	<circle cx="2124.91" cy="2298.11" r="22.03" style="fill:none;stroke:#1A476F;stroke-width:8.64"/>
	<circle cx="2896.00" cy="2216.68" r="26.35" style="fill:#1A476F"/>
	<circle cx="2896.00" cy="2216.68" r="22.03" style="fill:none;stroke:#1A476F;stroke-width:8.64"/>
	<circle cx="3153.03" cy="1872.89" r="26.35" style="fill:#1A476F"/>
	<circle cx="3153.03" cy="1872.89" r="22.03" style="fill:none;stroke:#1A476F;stroke-width:8.64"/>
	<circle cx="3538.63" cy="1628.72" r="26.35" style="fill:#1A476F"/>
	<circle cx="3538.63" cy="1628.72" r="22.03" style="fill:none;stroke:#1A476F;stroke-width:8.64"/>
	<circle cx="3667.08" cy="979.51" r="26.35" style="fill:#1A476F"/>
	<circle cx="3667.08" cy="979.51" r="22.03" style="fill:none;stroke:#1A476F;stroke-width:8.64"/>
	<circle cx="3667.08" cy="165.34" r="26.35" style="fill:#1A476F"/>
	<circle cx="3667.08" cy="165.34" r="22.03" style="fill:none;stroke:#1A476F;stroke-width:8.64"/>
	<circle cx="2381.94" cy="2405.03" r="26.35" style="fill:#1A476F"/>
	<circle cx="2381.94" cy="2405.03" r="22.03" style="fill:none;stroke:#1A476F;stroke-width:8.64"/>
	<circle cx="2381.94" cy="2247.25" r="26.35" style="fill:#1A476F"/>
	<circle cx="2381.94" cy="2247.25" r="22.03" style="fill:none;stroke:#1A476F;stroke-width:8.64"/>
	<circle cx="2124.91" cy="2370.51" r="26.35" style="fill:#1A476F"/>
	<circle cx="2124.91" cy="2370.51" r="22.03" style="fill:none;stroke:#1A476F;stroke-width:8.64"/>
	<circle cx="3410.06" cy="1215.39" r="26.35" style="fill:#1A476F"/>
	<circle cx="3410.06" cy="1215.39" r="22.03" style="fill:none;stroke:#1A476F;stroke-width:8.64"/>
	<circle cx="2381.94" cy="2372.24" r="26.35" style="fill:#1A476F"/>
	<circle cx="2381.94" cy="2372.24" r="22.03" style="fill:none;stroke:#1A476F;stroke-width:8.64"/>
	<circle cx="3667.08" cy="1341.99" r="26.35" style="fill:#1A476F"/>
	<circle cx="3667.08" cy="1341.99" r="22.03" style="fill:none;stroke:#1A476F;stroke-width:8.64"/>
	<circle cx="2638.97" cy="2325.83" r="26.35" style="fill:#1A476F"/>
	<circle cx="2638.97" cy="2325.83" r="22.03" style="fill:none;stroke:#1A476F;stroke-width:8.64"/>
	<circle cx="2381.94" cy="2321.25" r="26.35" style="fill:#1A476F"/>
	<circle cx="2381.94" cy="2321.25" r="22.03" style="fill:none;stroke:#1A476F;stroke-width:8.64"/>
	<circle cx="1739.31" cy="2333.13" r="26.35" style="fill:#1A476F"/>
	<circle cx="1739.31" cy="2333.13" r="22.03" style="fill:none;stroke:#1A476F;stroke-width:8.64"/>
	<circle cx="454.04" cy="2402.68" r="26.35" style="fill:#1A476F"/>
	<circle cx="454.04" cy="2402.68" r="22.03" style="fill:none;stroke:#1A476F;stroke-width:8.64"/>
	<circle cx="2381.94" cy="2384.12" r="26.35" style="fill:#1A476F"/>
	<circle cx="2381.94" cy="2384.12" r="22.03" style="fill:none;stroke:#1A476F;stroke-width:8.64"/>
	<circle cx="3153.03" cy="2327.56" r="26.35" style="fill:#1A476F"/>
	<circle cx="3153.03" cy="2327.56" r="22.03" style="fill:none;stroke:#1A476F;stroke-width:8.64"/>
	<circle cx="2767.42" cy="2208.76" r="26.35" style="fill:#1A476F"/>
	<circle cx="2767.42" cy="2208.76" r="22.03" style="fill:none;stroke:#1A476F;stroke-width:8.64"/>
	<circle cx="2253.36" cy="2318.65" r="26.35" style="fill:#1A476F"/>
	<circle cx="2253.36" cy="2318.65" r="22.03" style="fill:none;stroke:#1A476F;stroke-width:8.64"/>
	<circle cx="3024.57" cy="2256.90" r="26.35" style="fill:#1A476F"/>
	<circle cx="3024.57" cy="2256.90" r="22.03" style="fill:none;stroke:#1A476F;stroke-width:8.64"/>
	<circle cx="2896.00" cy="2170.40" r="26.35" style="fill:#1A476F"/>
	<circle cx="2896.00" cy="2170.40" r="22.03" style="fill:none;stroke:#1A476F;stroke-width:8.64"/>
	<circle cx="3410.06" cy="772.60" r="26.35" style="fill:#1A476F"/>
	<circle cx="3410.06" cy="772.60" r="22.03" style="fill:none;stroke:#1A476F;stroke-width:8.64"/>
	<circle cx="2896.00" cy="1971.89" r="26.35" style="fill:#1A476F"/>
	<circle cx="2896.00" cy="1971.89" r="22.03" style="fill:none;stroke:#1A476F;stroke-width:8.64"/>
	<circle cx="1482.28" cy="2368.77" r="26.35" style="fill:#1A476F"/>
	<circle cx="1482.28" cy="2368.77" r="22.03" style="fill:none;stroke:#1A476F;stroke-width:8.64"/>
	<circle cx="2124.91" cy="2164.08" r="26.35" style="fill:#1A476F"/>
	<circle cx="2124.91" cy="2164.08" r="22.03" style="fill:none;stroke:#1A476F;stroke-width:8.64"/>
	<circle cx="3153.03" cy="2143.79" r="26.35" style="fill:#1A476F"/>
	<circle cx="3153.03" cy="2143.79" r="22.03" style="fill:none;stroke:#1A476F;stroke-width:8.64"/>
	<circle cx="2510.39" cy="2286.23" r="26.35" style="fill:#1A476F"/>
	<circle cx="2510.39" cy="2286.23" r="22.03" style="fill:none;stroke:#1A476F;stroke-width:8.64"/>
	<circle cx="2510.39" cy="2339.94" r="26.35" style="fill:#1A476F"/>
	<circle cx="2510.39" cy="2339.94" r="22.03" style="fill:none;stroke:#1A476F;stroke-width:8.64"/>
	<circle cx="2510.39" cy="2326.45" r="26.35" style="fill:#1A476F"/>
	<circle cx="2510.39" cy="2326.45" r="22.03" style="fill:none;stroke:#1A476F;stroke-width:8.64"/>
	<circle cx="2381.94" cy="2287.96" r="26.35" style="fill:#1A476F"/>
	<circle cx="2381.94" cy="2287.96" r="22.03" style="fill:none;stroke:#1A476F;stroke-width:8.64"/>
	<circle cx="3024.57" cy="2082.65" r="26.35" style="fill:#1A476F"/>
	<circle cx="3024.57" cy="2082.65" r="22.03" style="fill:none;stroke:#1A476F;stroke-width:8.64"/>
	<circle cx="2896.00" cy="2226.33" r="26.35" style="fill:#1A476F"/>
	<circle cx="2896.00" cy="2226.33" r="22.03" style="fill:none;stroke:#1A476F;stroke-width:8.64"/>
	<line x1="390.80" y1="2489.19" x2="390.80" y2="100.86" style="stroke:#000000;stroke-width:5.76"/>
	<line x1="390.80" y1="2425.82" x2="350.83" y2="2425.82" style="stroke:#000000;stroke-width:5.76"/>
	<text x="300.72" y="2425.82" style="font-family:'Helvetica';font-size:99.99px;fill:#000000" transform="rotate(-90 300.72,2425.82)" text-anchor="middle">0</text>
	<line x1="390.80" y1="1860.39" x2="350.83" y2="1860.39" style="stroke:#000000;stroke-width:5.76"/>
	<text x="300.72" y="1860.39" style="font-family:'Helvetica';font-size:99.99px;fill:#000000" transform="rotate(-90 300.72,1860.39)" text-anchor="middle">10000</text>
	<line x1="390.80" y1="1294.96" x2="350.83" y2="1294.96" style="stroke:#000000;stroke-width:5.76"/>
	<text x="300.72" y="1294.96" style="font-family:'Helvetica';font-size:99.99px;fill:#000000" transform="rotate(-90 300.72,1294.96)" text-anchor="middle">20000</text>
	<line x1="390.80" y1="729.53" x2="350.83" y2="729.53" style="stroke:#000000;stroke-width:5.76"/>
	<text x="300.72" y="729.53" style="font-family:'Helvetica';font-size:99.99px;fill:#000000" transform="rotate(-90 300.72,729.53)" text-anchor="middle">30000</text>
	<line x1="390.80" y1="164.22" x2="350.83" y2="164.22" style="stroke:#000000;stroke-width:5.76"/>
	<text x="300.72" y="164.22" style="font-family:'Helvetica';font-size:99.99px;fill:#000000" transform="rotate(-90 300.72,164.22)" text-anchor="middle">40000</text>
	<text x="190.71" y="1294.96" style="font-family:'Helvetica';font-size:99.99px;fill:#000000" transform="rotate(-90 190.71,1294.96)" text-anchor="middle">GNP per capita</text>
	<line x1="390.80" y1="2489.19" x2="3859.02" y2="2489.19" style="stroke:#000000;stroke-width:5.76"/>
	<line x1="582.62" y1="2489.19" x2="582.62" y2="2529.16" style="stroke:#000000;stroke-width:5.76"/>
	<text x="582.62" y="2619.14" style="font-family:'Helvetica';font-size:99.99px;fill:#000000" text-anchor="middle">55</text>
	<line x1="1225.25" y1="2489.19" x2="1225.25" y2="2529.16" style="stroke:#000000;stroke-width:5.76"/>
	<text x="1225.25" y="2619.14" style="font-family:'Helvetica';font-size:99.99px;fill:#000000" text-anchor="middle">60</text>
	<line x1="1867.88" y1="2489.19" x2="1867.88" y2="2529.16" style="stroke:#000000;stroke-width:5.76"/>
	<text x="1867.88" y="2619.14" style="font-family:'Helvetica';font-size:99.99px;fill:#000000" text-anchor="middle">65</text>
	<line x1="2510.52" y1="2489.19" x2="2510.52" y2="2529.16" style="stroke:#000000;stroke-width:5.76"/>
	<text x="2510.52" y="2619.14" style="font-family:'Helvetica';font-size:99.99px;fill:#000000" text-anchor="middle">70</text>
	<line x1="3153.15" y1="2489.19" x2="3153.15" y2="2529.16" style="stroke:#000000;stroke-width:5.76"/>
	<text x="3153.15" y="2619.14" style="font-family:'Helvetica';font-size:99.99px;fill:#000000" text-anchor="middle">75</text>
	<line x1="3795.66" y1="2489.19" x2="3795.66" y2="2529.16" style="stroke:#000000;stroke-width:5.76"/>
	<text x="3795.66" y="2619.14" style="font-family:'Helvetica';font-size:99.99px;fill:#000000" text-anchor="middle">80</text>
	<text x="2124.91" y="2729.16" style="font-family:'Helvetica';font-size:99.99px;fill:#000000" text-anchor="middle">Life expectancy at birth</text>
</svg>